# xmcd
#
# Track frame offsets: 
#        150
#        17412
#        34002
#        51916
#        70706
#        90183
#        103477
#        120905
#        135305
#        149957
#        167309
#        180595
#
# Disc length: 2601 seconds
#
# Revision: 3
# Processed by: cddbd v1.5.2PL0 Copyright (c) Steve Scherf et al.
# Submitted via: ExactAudioCopy v0.99pb4
#
DISCID=950a270c
DTITLE=Nitzer Ebb - [CD 1) Industrial Complex
DYEAR=2010
DGENRE=EBM
TTITLE0=Promises
TTITLE1=Once You Say
TTITLE2=Never Known
TTITLE3=Going Away
TTITLE4=Hit You Back
TTITLE5=Payroll
TTITLE6=Down On Your Knees
TTITLE7=I Don't Know You
TTITLE8=My Door Is Open
TTITLE9=I Am Undone
TTITLE10=Kiss Kiss Bang Bang
TTITLE11=Traveling
EXTD=Doppel-CD, CD1 von 2\nErschienen im Januar 2010
EXTT0=
EXTT1=
EXTT2=
EXTT3=
EXTT4=
EXTT5=
EXTT6=
EXTT7=
EXTT8=
EXTT9=
EXTT10=
EXTT11=
PLAYORDER=
